<mxfile host="Electron" agent="Mozilla/5.0 (Windows NT 10.0; Win64; x64) AppleWebKit/537.36 (KHTML, like Gecko) draw.io/27.0.9 Chrome/134.0.6998.205 Electron/35.4.0 Safari/537.36" version="27.0.9">
  <diagram name="第 1 页" id="6dwHqSviJkNAMr1cve2W">
    <mxGraphModel dx="1213" dy="828" grid="1" gridSize="10" guides="1" tooltips="1" connect="1" arrows="1" fold="1" page="1" pageScale="1" pageWidth="827" pageHeight="1169" math="0" shadow="0">
      <root>
        <mxCell id="0" />
        <mxCell id="1" parent="0" />
        <mxCell id="T-t7kQBQDLx_ATR56J1J-1" value="&lt;font style=&quot;font-size: 15px;&quot;&gt;云台C板&lt;/font&gt;" style="rounded=1;whiteSpace=wrap;html=1;fillColor=#e51400;strokeColor=#B20000;fontColor=#ffffff;" vertex="1" parent="1">
          <mxGeometry x="360" y="180" width="120" height="60" as="geometry" />
        </mxCell>
        <mxCell id="T-t7kQBQDLx_ATR56J1J-3" value="&lt;font style=&quot;font-size: 15px;&quot;&gt;底盘C板&lt;/font&gt;" style="rounded=1;whiteSpace=wrap;html=1;fillColor=#e51400;strokeColor=#B20000;fontColor=#ffffff;" vertex="1" parent="1">
          <mxGeometry x="354" y="520" width="120" height="60" as="geometry" />
        </mxCell>
        <mxCell id="T-t7kQBQDLx_ATR56J1J-5" value="" style="endArrow=none;html=1;rounded=0;exitX=0.653;exitY=-0.056;exitDx=0;exitDy=0;exitPerimeter=0;" edge="1" parent="1" source="T-t7kQBQDLx_ATR56J1J-1">
          <mxGeometry width="50" height="50" relative="1" as="geometry">
            <mxPoint x="440" y="170" as="sourcePoint" />
            <mxPoint x="438" y="110" as="targetPoint" />
          </mxGeometry>
        </mxCell>
        <mxCell id="T-t7kQBQDLx_ATR56J1J-8" value="DBUS" style="rounded=1;whiteSpace=wrap;html=1;rotation=90;" vertex="1" parent="1">
          <mxGeometry x="414" y="80" width="50" height="30" as="geometry" />
        </mxCell>
        <mxCell id="T-t7kQBQDLx_ATR56J1J-13" value="Jlink" style="rounded=1;whiteSpace=wrap;html=1;rotation=90;arcSize=0;" vertex="1" parent="1">
          <mxGeometry x="460" y="85" width="40" height="20" as="geometry" />
        </mxCell>
        <mxCell id="T-t7kQBQDLx_ATR56J1J-15" value="" style="shape=xor;whiteSpace=wrap;html=1;rotation=-180;" vertex="1" parent="1">
          <mxGeometry x="10" y="240" width="50" height="330" as="geometry" />
        </mxCell>
        <mxCell id="T-t7kQBQDLx_ATR56J1J-17" value="" style="shape=xor;whiteSpace=wrap;html=1;rotation=0;" vertex="1" parent="1">
          <mxGeometry x="770" y="240" width="50" height="330" as="geometry" />
        </mxCell>
        <mxCell id="T-t7kQBQDLx_ATR56J1J-18" value="" style="shape=xor;whiteSpace=wrap;html=1;rotation=-90;" vertex="1" parent="1">
          <mxGeometry x="389" y="-140" width="50" height="330" as="geometry" />
        </mxCell>
        <mxCell id="T-t7kQBQDLx_ATR56J1J-19" value="" style="shape=xor;whiteSpace=wrap;html=1;rotation=90;" vertex="1" parent="1">
          <mxGeometry x="389" y="640" width="50" height="330" as="geometry" />
        </mxCell>
        <mxCell id="T-t7kQBQDLx_ATR56J1J-21" value="麦轮&lt;div&gt;M3508-2&lt;/div&gt;" style="rounded=1;whiteSpace=wrap;html=1;fillColor=#FFA809;strokeColor=#BD7000;fontColor=#000000;" vertex="1" parent="1">
          <mxGeometry x="100" y="560" width="80" height="50" as="geometry" />
        </mxCell>
        <mxCell id="T-t7kQBQDLx_ATR56J1J-22" value="麦轮&lt;div&gt;M3508-3&lt;/div&gt;" style="rounded=1;whiteSpace=wrap;html=1;fillColor=#FFA809;strokeColor=#BD7000;fontColor=#000000;" vertex="1" parent="1">
          <mxGeometry x="100" y="630" width="80" height="50" as="geometry" />
        </mxCell>
        <mxCell id="T-t7kQBQDLx_ATR56J1J-23" value="麦轮&lt;div&gt;M3508-4&lt;/div&gt;" style="rounded=1;whiteSpace=wrap;html=1;fillColor=#FFA809;strokeColor=#BD7000;fontColor=#000000;" vertex="1" parent="1">
          <mxGeometry x="100" y="700" width="80" height="50" as="geometry" />
        </mxCell>
        <mxCell id="T-t7kQBQDLx_ATR56J1J-24" value="麦轮&lt;div&gt;M3508-1&lt;/div&gt;" style="rounded=1;whiteSpace=wrap;html=1;fillColor=#FFA809;strokeColor=#BD7000;fontColor=#000000;" vertex="1" parent="1">
          <mxGeometry x="100" y="490" width="80" height="50" as="geometry" />
        </mxCell>
        <mxCell id="T-t7kQBQDLx_ATR56J1J-25" value="" style="endArrow=none;dashed=1;html=1;dashPattern=1 3;strokeWidth=2;rounded=0;" edge="1" parent="1">
          <mxGeometry width="50" height="50" relative="1" as="geometry">
            <mxPoint x="240" y="770" as="sourcePoint" />
            <mxPoint x="240" y="480" as="targetPoint" />
          </mxGeometry>
        </mxCell>
        <mxCell id="T-t7kQBQDLx_ATR56J1J-26" value="" style="endArrow=none;dashed=1;html=1;dashPattern=1 3;strokeWidth=2;rounded=0;" edge="1" parent="1">
          <mxGeometry width="50" height="50" relative="1" as="geometry">
            <mxPoint x="90" y="770" as="sourcePoint" />
            <mxPoint x="90" y="480" as="targetPoint" />
          </mxGeometry>
        </mxCell>
        <mxCell id="T-t7kQBQDLx_ATR56J1J-27" value="" style="endArrow=none;dashed=1;html=1;dashPattern=1 3;strokeWidth=2;rounded=0;" edge="1" parent="1">
          <mxGeometry width="50" height="50" relative="1" as="geometry">
            <mxPoint x="240" y="770" as="sourcePoint" />
            <mxPoint x="90" y="770" as="targetPoint" />
          </mxGeometry>
        </mxCell>
        <mxCell id="T-t7kQBQDLx_ATR56J1J-28" value="" style="endArrow=none;dashed=1;html=1;dashPattern=1 3;strokeWidth=2;rounded=0;" edge="1" parent="1">
          <mxGeometry width="50" height="50" relative="1" as="geometry">
            <mxPoint x="90" y="480" as="sourcePoint" />
            <mxPoint x="240" y="480" as="targetPoint" />
          </mxGeometry>
        </mxCell>
        <mxCell id="T-t7kQBQDLx_ATR56J1J-29" value="" style="endArrow=none;html=1;rounded=0;" edge="1" parent="1">
          <mxGeometry width="50" height="50" relative="1" as="geometry">
            <mxPoint x="300" y="730" as="sourcePoint" />
            <mxPoint x="300" y="510" as="targetPoint" />
          </mxGeometry>
        </mxCell>
        <mxCell id="T-t7kQBQDLx_ATR56J1J-30" value="" style="endArrow=none;html=1;rounded=0;" edge="1" parent="1">
          <mxGeometry width="50" height="50" relative="1" as="geometry">
            <mxPoint x="240" y="510" as="sourcePoint" />
            <mxPoint x="300" y="510" as="targetPoint" />
          </mxGeometry>
        </mxCell>
        <mxCell id="T-t7kQBQDLx_ATR56J1J-31" value="" style="endArrow=none;html=1;rounded=0;" edge="1" parent="1">
          <mxGeometry width="50" height="50" relative="1" as="geometry">
            <mxPoint x="240" y="589.5" as="sourcePoint" />
            <mxPoint x="300" y="589.5" as="targetPoint" />
          </mxGeometry>
        </mxCell>
        <mxCell id="T-t7kQBQDLx_ATR56J1J-32" value="" style="endArrow=none;html=1;rounded=0;" edge="1" parent="1">
          <mxGeometry width="50" height="50" relative="1" as="geometry">
            <mxPoint x="240" y="659.5" as="sourcePoint" />
            <mxPoint x="300" y="659.5" as="targetPoint" />
          </mxGeometry>
        </mxCell>
        <mxCell id="T-t7kQBQDLx_ATR56J1J-33" value="" style="endArrow=none;html=1;rounded=0;" edge="1" parent="1">
          <mxGeometry width="50" height="50" relative="1" as="geometry">
            <mxPoint x="240" y="729.5" as="sourcePoint" />
            <mxPoint x="300" y="729.5" as="targetPoint" />
          </mxGeometry>
        </mxCell>
        <mxCell id="T-t7kQBQDLx_ATR56J1J-35" value="分电板1" style="rounded=1;whiteSpace=wrap;html=1;fillColor=#647687;fontColor=#ffffff;strokeColor=#314354;" vertex="1" parent="1">
          <mxGeometry x="350" y="680" width="50" height="40" as="geometry" />
        </mxCell>
        <mxCell id="T-t7kQBQDLx_ATR56J1J-37" value="" style="endArrow=classic;html=1;rounded=0;fillColor=#008a00;strokeColor=light-dark(#005700,#0DF2D7);" edge="1" parent="1">
          <mxGeometry width="50" height="50" relative="1" as="geometry">
            <mxPoint x="320" y="520" as="sourcePoint" />
            <mxPoint x="240" y="520" as="targetPoint" />
          </mxGeometry>
        </mxCell>
        <mxCell id="T-t7kQBQDLx_ATR56J1J-38" value="" style="endArrow=classic;html=1;rounded=0;" edge="1" parent="1">
          <mxGeometry width="50" height="50" relative="1" as="geometry">
            <mxPoint x="320" y="600" as="sourcePoint" />
            <mxPoint x="240" y="600" as="targetPoint" />
          </mxGeometry>
        </mxCell>
        <mxCell id="T-t7kQBQDLx_ATR56J1J-39" value="" style="endArrow=classic;html=1;rounded=0;" edge="1" parent="1">
          <mxGeometry width="50" height="50" relative="1" as="geometry">
            <mxPoint x="320" y="670" as="sourcePoint" />
            <mxPoint x="240" y="670" as="targetPoint" />
          </mxGeometry>
        </mxCell>
        <mxCell id="T-t7kQBQDLx_ATR56J1J-40" value="" style="endArrow=classic;html=1;rounded=0;" edge="1" parent="1">
          <mxGeometry width="50" height="50" relative="1" as="geometry">
            <mxPoint x="320" y="740" as="sourcePoint" />
            <mxPoint x="240" y="740" as="targetPoint" />
          </mxGeometry>
        </mxCell>
        <mxCell id="T-t7kQBQDLx_ATR56J1J-41" value="" style="endArrow=classic;html=1;rounded=0;fillColor=#008a00;strokeColor=light-dark(#005700,#0DF2D7);" edge="1" parent="1">
          <mxGeometry width="50" height="50" relative="1" as="geometry">
            <mxPoint x="320" y="600" as="sourcePoint" />
            <mxPoint x="240" y="600" as="targetPoint" />
          </mxGeometry>
        </mxCell>
        <mxCell id="T-t7kQBQDLx_ATR56J1J-42" value="" style="endArrow=classic;html=1;rounded=0;fillColor=#008a00;strokeColor=light-dark(#005700,#0DF2D7);" edge="1" parent="1">
          <mxGeometry width="50" height="50" relative="1" as="geometry">
            <mxPoint x="320" y="670" as="sourcePoint" />
            <mxPoint x="240" y="670" as="targetPoint" />
          </mxGeometry>
        </mxCell>
        <mxCell id="T-t7kQBQDLx_ATR56J1J-43" value="" style="endArrow=classic;html=1;rounded=0;fillColor=#008a00;strokeColor=light-dark(#005700,#0DF2D7);" edge="1" parent="1">
          <mxGeometry width="50" height="50" relative="1" as="geometry">
            <mxPoint x="320" y="740" as="sourcePoint" />
            <mxPoint x="240" y="740" as="targetPoint" />
          </mxGeometry>
        </mxCell>
        <mxCell id="T-t7kQBQDLx_ATR56J1J-44" value="" style="endArrow=none;html=1;rounded=0;entryX=0;entryY=0.5;entryDx=0;entryDy=0;" edge="1" parent="1" target="T-t7kQBQDLx_ATR56J1J-35">
          <mxGeometry width="50" height="50" relative="1" as="geometry">
            <mxPoint x="300" y="700" as="sourcePoint" />
            <mxPoint x="350" y="650" as="targetPoint" />
          </mxGeometry>
        </mxCell>
        <mxCell id="T-t7kQBQDLx_ATR56J1J-46" value="" style="endArrow=none;html=1;rounded=0;fillColor=#d5e8d4;gradientColor=#97d077;strokeColor=#82b366;" edge="1" parent="1">
          <mxGeometry width="50" height="50" relative="1" as="geometry">
            <mxPoint x="320" y="740" as="sourcePoint" />
            <mxPoint x="320" y="520" as="targetPoint" />
          </mxGeometry>
        </mxCell>
        <mxCell id="T-t7kQBQDLx_ATR56J1J-49" value="CAN1" style="edgeLabel;html=1;align=center;verticalAlign=middle;resizable=0;points=[];" vertex="1" connectable="0" parent="T-t7kQBQDLx_ATR56J1J-46">
          <mxGeometry x="0.6061" y="-1" relative="1" as="geometry">
            <mxPoint as="offset" />
          </mxGeometry>
        </mxCell>
        <mxCell id="T-t7kQBQDLx_ATR56J1J-47" value="" style="endArrow=none;html=1;rounded=0;entryX=0;entryY=0.75;entryDx=0;entryDy=0;fillColor=#d5e8d4;gradientColor=#97d077;strokeColor=#82b366;" edge="1" parent="1" target="T-t7kQBQDLx_ATR56J1J-35">
          <mxGeometry width="50" height="50" relative="1" as="geometry">
            <mxPoint x="320" y="710" as="sourcePoint" />
            <mxPoint x="370" y="660" as="targetPoint" />
          </mxGeometry>
        </mxCell>
        <mxCell id="T-t7kQBQDLx_ATR56J1J-50" value="" style="endArrow=none;html=1;rounded=0;fillColor=#d5e8d4;gradientColor=#97d077;strokeColor=#82b366;" edge="1" parent="1">
          <mxGeometry width="50" height="50" relative="1" as="geometry">
            <mxPoint x="360.28" y="680" as="sourcePoint" />
            <mxPoint x="360" y="580" as="targetPoint" />
          </mxGeometry>
        </mxCell>
        <mxCell id="T-t7kQBQDLx_ATR56J1J-51" value="CAN1" style="edgeLabel;html=1;align=center;verticalAlign=middle;resizable=0;points=[];" vertex="1" connectable="0" parent="T-t7kQBQDLx_ATR56J1J-50">
          <mxGeometry x="0.0332" y="-2" relative="1" as="geometry">
            <mxPoint as="offset" />
          </mxGeometry>
        </mxCell>
        <mxCell id="T-t7kQBQDLx_ATR56J1J-52" value="" style="endArrow=none;html=1;rounded=0;entryX=0.147;entryY=1;entryDx=0;entryDy=0;entryPerimeter=0;" edge="1" parent="1">
          <mxGeometry width="50" height="50" relative="1" as="geometry">
            <mxPoint x="520" y="700" as="sourcePoint" />
            <mxPoint x="521.6400000000001" y="470" as="targetPoint" />
          </mxGeometry>
        </mxCell>
        <mxCell id="T-t7kQBQDLx_ATR56J1J-53" value="XT30" style="edgeLabel;html=1;align=center;verticalAlign=middle;resizable=0;points=[];" vertex="1" connectable="0" parent="T-t7kQBQDLx_ATR56J1J-52">
          <mxGeometry x="-0.5861" y="-2" relative="1" as="geometry">
            <mxPoint as="offset" />
          </mxGeometry>
        </mxCell>
        <mxCell id="T-t7kQBQDLx_ATR56J1J-56" value="底盘" style="edgeLabel;html=1;align=center;verticalAlign=middle;resizable=0;points=[];" vertex="1" connectable="0" parent="T-t7kQBQDLx_ATR56J1J-52">
          <mxGeometry x="0.1972" y="-1" relative="1" as="geometry">
            <mxPoint as="offset" />
          </mxGeometry>
        </mxCell>
        <mxCell id="T-t7kQBQDLx_ATR56J1J-54" value="电源控制&lt;div&gt;模块&lt;/div&gt;" style="rounded=1;whiteSpace=wrap;html=1;fillColor=#6d8764;strokeColor=#3A5431;fontColor=#ffffff;" vertex="1" parent="1">
          <mxGeometry x="500" y="430" width="70" height="65" as="geometry" />
        </mxCell>
        <mxCell id="T-t7kQBQDLx_ATR56J1J-55" value="" style="endArrow=none;html=1;rounded=0;" edge="1" parent="1">
          <mxGeometry width="50" height="50" relative="1" as="geometry">
            <mxPoint x="400" y="700" as="sourcePoint" />
            <mxPoint x="520" y="700" as="targetPoint" />
          </mxGeometry>
        </mxCell>
        <mxCell id="T-t7kQBQDLx_ATR56J1J-57" value="" style="endArrow=none;html=1;rounded=0;" edge="1" parent="1">
          <mxGeometry width="50" height="50" relative="1" as="geometry">
            <mxPoint x="460" y="130" as="sourcePoint" />
            <mxPoint x="480" y="130" as="targetPoint" />
          </mxGeometry>
        </mxCell>
        <mxCell id="T-t7kQBQDLx_ATR56J1J-59" value="" style="endArrow=none;html=1;rounded=0;" edge="1" parent="1">
          <mxGeometry width="50" height="50" relative="1" as="geometry">
            <mxPoint x="460" y="180" as="sourcePoint" />
            <mxPoint x="460" y="130" as="targetPoint" />
          </mxGeometry>
        </mxCell>
        <mxCell id="T-t7kQBQDLx_ATR56J1J-60" value="SWD" style="edgeLabel;html=1;align=center;verticalAlign=middle;resizable=0;points=[];" vertex="1" connectable="0" parent="T-t7kQBQDLx_ATR56J1J-59">
          <mxGeometry x="0.0667" y="-1" relative="1" as="geometry">
            <mxPoint as="offset" />
          </mxGeometry>
        </mxCell>
        <mxCell id="T-t7kQBQDLx_ATR56J1J-61" value="" style="endArrow=none;html=1;rounded=0;entryX=1;entryY=0.5;entryDx=0;entryDy=0;" edge="1" parent="1" target="T-t7kQBQDLx_ATR56J1J-13">
          <mxGeometry width="50" height="50" relative="1" as="geometry">
            <mxPoint x="480" y="130" as="sourcePoint" />
            <mxPoint x="510" y="110" as="targetPoint" />
          </mxGeometry>
        </mxCell>
        <mxCell id="T-t7kQBQDLx_ATR56J1J-62" value="" style="endArrow=none;html=1;rounded=0;entryX=0.624;entryY=0.985;entryDx=0;entryDy=0;entryPerimeter=0;" edge="1" parent="1" target="T-t7kQBQDLx_ATR56J1J-54">
          <mxGeometry width="50" height="50" relative="1" as="geometry">
            <mxPoint x="544" y="610" as="sourcePoint" />
            <mxPoint x="610" y="560" as="targetPoint" />
          </mxGeometry>
        </mxCell>
        <mxCell id="T-t7kQBQDLx_ATR56J1J-63" value="miniPC" style="edgeLabel;html=1;align=center;verticalAlign=middle;resizable=0;points=[];" vertex="1" connectable="0" parent="T-t7kQBQDLx_ATR56J1J-62">
          <mxGeometry x="0.3911" relative="1" as="geometry">
            <mxPoint as="offset" />
          </mxGeometry>
        </mxCell>
        <mxCell id="T-t7kQBQDLx_ATR56J1J-64" value="电池组" style="rounded=1;whiteSpace=wrap;html=1;" vertex="1" parent="1">
          <mxGeometry x="680" y="610" width="70" height="60" as="geometry" />
        </mxCell>
        <mxCell id="T-t7kQBQDLx_ATR56J1J-65" value="" style="endArrow=none;html=1;rounded=0;" edge="1" parent="1">
          <mxGeometry width="50" height="50" relative="1" as="geometry">
            <mxPoint x="720" y="610" as="sourcePoint" />
            <mxPoint x="720" y="480" as="targetPoint" />
          </mxGeometry>
        </mxCell>
        <mxCell id="T-t7kQBQDLx_ATR56J1J-66" value="" style="endArrow=none;html=1;rounded=0;" edge="1" parent="1">
          <mxGeometry width="50" height="50" relative="1" as="geometry">
            <mxPoint x="570" y="480" as="sourcePoint" />
            <mxPoint x="720" y="480" as="targetPoint" />
          </mxGeometry>
        </mxCell>
        <mxCell id="T-t7kQBQDLx_ATR56J1J-67" value="XT60" style="edgeLabel;html=1;align=center;verticalAlign=middle;resizable=0;points=[];" vertex="1" connectable="0" parent="T-t7kQBQDLx_ATR56J1J-66">
          <mxGeometry x="-0.0667" y="3" relative="1" as="geometry">
            <mxPoint as="offset" />
          </mxGeometry>
        </mxCell>
        <mxCell id="T-t7kQBQDLx_ATR56J1J-68" value="分电板2" style="rounded=1;whiteSpace=wrap;html=1;fillColor=#647687;fontColor=#ffffff;strokeColor=#314354;" vertex="1" parent="1">
          <mxGeometry x="330" y="410" width="50" height="40" as="geometry" />
        </mxCell>
        <mxCell id="T-t7kQBQDLx_ATR56J1J-69" value="M2006-3" style="rounded=1;whiteSpace=wrap;html=1;fillColor=#FFA809;strokeColor=#BD7000;fontColor=#000000;" vertex="1" parent="1">
          <mxGeometry x="90" y="234.5" width="70" height="55.5" as="geometry" />
        </mxCell>
        <mxCell id="T-t7kQBQDLx_ATR56J1J-70" value="M2006-5" style="rounded=1;whiteSpace=wrap;html=1;fillColor=#FFA809;strokeColor=#BD7000;fontColor=#000000;" vertex="1" parent="1">
          <mxGeometry x="90" y="304.5" width="70" height="55.5" as="geometry" />
        </mxCell>
        <mxCell id="T-t7kQBQDLx_ATR56J1J-71" value="M2006-2" style="rounded=1;whiteSpace=wrap;html=1;fillColor=#FFA809;strokeColor=#BD7000;fontColor=#000000;" vertex="1" parent="1">
          <mxGeometry x="260" y="164.5" width="70" height="55.5" as="geometry" />
        </mxCell>
        <mxCell id="T-t7kQBQDLx_ATR56J1J-72" value="M2006-1" style="rounded=1;whiteSpace=wrap;html=1;fillColor=#FFA809;strokeColor=#BD7000;fontColor=#000000;" vertex="1" parent="1">
          <mxGeometry x="90" y="164.5" width="70" height="55.5" as="geometry" />
        </mxCell>
        <mxCell id="T-t7kQBQDLx_ATR56J1J-73" value="" style="endArrow=none;dashed=1;html=1;dashPattern=1 3;strokeWidth=2;rounded=0;" edge="1" parent="1">
          <mxGeometry width="50" height="50" relative="1" as="geometry">
            <mxPoint x="80" y="380" as="sourcePoint" />
            <mxPoint x="80" y="154.5" as="targetPoint" />
          </mxGeometry>
        </mxCell>
        <mxCell id="T-t7kQBQDLx_ATR56J1J-74" value="" style="endArrow=none;dashed=1;html=1;dashPattern=1 3;strokeWidth=2;rounded=0;" edge="1" parent="1">
          <mxGeometry width="50" height="50" relative="1" as="geometry">
            <mxPoint x="225" y="380" as="sourcePoint" />
            <mxPoint x="75" y="380" as="targetPoint" />
          </mxGeometry>
        </mxCell>
        <mxCell id="T-t7kQBQDLx_ATR56J1J-75" value="" style="endArrow=none;dashed=1;html=1;dashPattern=1 3;strokeWidth=2;rounded=0;" edge="1" parent="1">
          <mxGeometry width="50" height="50" relative="1" as="geometry">
            <mxPoint x="80" y="154.5" as="sourcePoint" />
            <mxPoint x="230" y="154.5" as="targetPoint" />
          </mxGeometry>
        </mxCell>
        <mxCell id="T-t7kQBQDLx_ATR56J1J-76" value="M2006-4" style="rounded=1;whiteSpace=wrap;html=1;fillColor=#FFA809;strokeColor=#BD7000;fontColor=#000000;" vertex="1" parent="1">
          <mxGeometry x="260" y="234.5" width="70" height="55.5" as="geometry" />
        </mxCell>
        <mxCell id="T-t7kQBQDLx_ATR56J1J-78" value="" style="endArrow=none;dashed=1;html=1;dashPattern=1 3;strokeWidth=2;rounded=0;" edge="1" parent="1">
          <mxGeometry width="50" height="50" relative="1" as="geometry">
            <mxPoint x="230" y="380" as="sourcePoint" />
            <mxPoint x="350" y="380" as="targetPoint" />
          </mxGeometry>
        </mxCell>
        <mxCell id="T-t7kQBQDLx_ATR56J1J-79" value="" style="endArrow=none;dashed=1;html=1;dashPattern=1 3;strokeWidth=2;rounded=0;" edge="1" parent="1">
          <mxGeometry width="50" height="50" relative="1" as="geometry">
            <mxPoint x="340" y="380" as="sourcePoint" />
            <mxPoint x="350" y="380" as="targetPoint" />
          </mxGeometry>
        </mxCell>
        <mxCell id="T-t7kQBQDLx_ATR56J1J-80" value="" style="endArrow=none;dashed=1;html=1;dashPattern=1 3;strokeWidth=2;rounded=0;" edge="1" parent="1">
          <mxGeometry width="50" height="50" relative="1" as="geometry">
            <mxPoint x="350" y="380" as="sourcePoint" />
            <mxPoint x="350" y="150" as="targetPoint" />
          </mxGeometry>
        </mxCell>
        <mxCell id="T-t7kQBQDLx_ATR56J1J-81" value="" style="endArrow=none;dashed=1;html=1;dashPattern=1 3;strokeWidth=2;rounded=0;" edge="1" parent="1">
          <mxGeometry width="50" height="50" relative="1" as="geometry">
            <mxPoint x="230" y="155" as="sourcePoint" />
            <mxPoint x="350" y="155" as="targetPoint" />
          </mxGeometry>
        </mxCell>
        <mxCell id="T-t7kQBQDLx_ATR56J1J-82" value="C620" style="rounded=1;whiteSpace=wrap;html=1;fillColor=#a0522d;fontColor=#ffffff;strokeColor=#6D1F00;" vertex="1" parent="1">
          <mxGeometry x="190" y="505" width="40" height="20" as="geometry" />
        </mxCell>
        <mxCell id="T-t7kQBQDLx_ATR56J1J-83" value="C620" style="rounded=1;whiteSpace=wrap;html=1;fillColor=#a0522d;fontColor=#ffffff;strokeColor=#6D1F00;" vertex="1" parent="1">
          <mxGeometry x="190" y="570" width="40" height="20" as="geometry" />
        </mxCell>
        <mxCell id="T-t7kQBQDLx_ATR56J1J-84" value="C620" style="rounded=1;whiteSpace=wrap;html=1;fillColor=#a0522d;fontColor=#ffffff;strokeColor=#6D1F00;" vertex="1" parent="1">
          <mxGeometry x="190" y="640" width="40" height="20" as="geometry" />
        </mxCell>
        <mxCell id="T-t7kQBQDLx_ATR56J1J-85" value="C620" style="rounded=1;whiteSpace=wrap;html=1;fillColor=#a0522d;fontColor=#ffffff;strokeColor=#6D1F00;" vertex="1" parent="1">
          <mxGeometry x="190" y="710" width="40" height="20" as="geometry" />
        </mxCell>
        <mxCell id="T-t7kQBQDLx_ATR56J1J-86" value="M2006-6&lt;div&gt;&lt;br&gt;&lt;/div&gt;" style="rounded=1;whiteSpace=wrap;html=1;fillColor=#FFA809;strokeColor=#BD7000;fontColor=#000000;" vertex="1" parent="1">
          <mxGeometry x="260" y="304.5" width="70" height="55.5" as="geometry" />
        </mxCell>
        <mxCell id="T-t7kQBQDLx_ATR56J1J-87" value="C620" style="rounded=1;whiteSpace=wrap;html=1;fillColor=#a0522d;fontColor=#ffffff;strokeColor=#6D1F00;" vertex="1" parent="1">
          <mxGeometry x="160" y="182.25" width="40" height="20" as="geometry" />
        </mxCell>
        <mxCell id="T-t7kQBQDLx_ATR56J1J-88" value="C620" style="rounded=1;whiteSpace=wrap;html=1;fillColor=#a0522d;fontColor=#ffffff;strokeColor=#6D1F00;" vertex="1" parent="1">
          <mxGeometry x="220" y="182.25" width="40" height="20" as="geometry" />
        </mxCell>
        <mxCell id="T-t7kQBQDLx_ATR56J1J-89" value="C620" style="rounded=1;whiteSpace=wrap;html=1;fillColor=#a0522d;fontColor=#ffffff;strokeColor=#6D1F00;" vertex="1" parent="1">
          <mxGeometry x="160" y="250" width="40" height="20" as="geometry" />
        </mxCell>
        <mxCell id="T-t7kQBQDLx_ATR56J1J-90" value="C620" style="rounded=1;whiteSpace=wrap;html=1;fillColor=#a0522d;fontColor=#ffffff;strokeColor=#6D1F00;" vertex="1" parent="1">
          <mxGeometry x="220" y="250" width="40" height="20" as="geometry" />
        </mxCell>
        <mxCell id="T-t7kQBQDLx_ATR56J1J-91" value="C620" style="rounded=1;whiteSpace=wrap;html=1;fillColor=#a0522d;fontColor=#ffffff;strokeColor=#6D1F00;" vertex="1" parent="1">
          <mxGeometry x="160" y="322.25" width="40" height="20" as="geometry" />
        </mxCell>
        <mxCell id="T-t7kQBQDLx_ATR56J1J-92" value="C620" style="rounded=1;whiteSpace=wrap;html=1;fillColor=#a0522d;fontColor=#ffffff;strokeColor=#6D1F00;" vertex="1" parent="1">
          <mxGeometry x="220" y="322.25" width="40" height="20" as="geometry" />
        </mxCell>
        <mxCell id="T-t7kQBQDLx_ATR56J1J-98" value="" style="endArrow=none;html=1;rounded=0;" edge="1" parent="1">
          <mxGeometry width="50" height="50" relative="1" as="geometry">
            <mxPoint x="160" y="440" as="sourcePoint" />
            <mxPoint x="160" y="380" as="targetPoint" />
          </mxGeometry>
        </mxCell>
        <mxCell id="T-t7kQBQDLx_ATR56J1J-99" value="" style="endArrow=none;html=1;rounded=0;entryX=0;entryY=0.75;entryDx=0;entryDy=0;" edge="1" parent="1" target="T-t7kQBQDLx_ATR56J1J-68">
          <mxGeometry width="50" height="50" relative="1" as="geometry">
            <mxPoint x="160" y="440" as="sourcePoint" />
            <mxPoint x="210" y="390" as="targetPoint" />
          </mxGeometry>
        </mxCell>
        <mxCell id="T-t7kQBQDLx_ATR56J1J-100" value="XT30" style="edgeLabel;html=1;align=center;verticalAlign=middle;resizable=0;points=[];" vertex="1" connectable="0" parent="T-t7kQBQDLx_ATR56J1J-99">
          <mxGeometry x="-0.2" y="1" relative="1" as="geometry">
            <mxPoint as="offset" />
          </mxGeometry>
        </mxCell>
        <mxCell id="T-t7kQBQDLx_ATR56J1J-101" value="" style="endArrow=classic;html=1;rounded=0;" edge="1" parent="1">
          <mxGeometry width="50" height="50" relative="1" as="geometry">
            <mxPoint x="180" y="430" as="sourcePoint" />
            <mxPoint x="180" y="380" as="targetPoint" />
          </mxGeometry>
        </mxCell>
        <mxCell id="T-t7kQBQDLx_ATR56J1J-102" value="" style="endArrow=none;html=1;rounded=0;entryX=0;entryY=0.5;entryDx=0;entryDy=0;fillColor=#dae8fc;strokeColor=#6c8ebf;gradientColor=#7ea6e0;" edge="1" parent="1" target="T-t7kQBQDLx_ATR56J1J-68">
          <mxGeometry width="50" height="50" relative="1" as="geometry">
            <mxPoint x="180" y="430" as="sourcePoint" />
            <mxPoint x="230" y="380" as="targetPoint" />
          </mxGeometry>
        </mxCell>
        <mxCell id="T-t7kQBQDLx_ATR56J1J-104" value="CAN1" style="edgeLabel;html=1;align=center;verticalAlign=middle;resizable=0;points=[];" vertex="1" connectable="0" parent="T-t7kQBQDLx_ATR56J1J-102">
          <mxGeometry x="0.2" y="1" relative="1" as="geometry">
            <mxPoint as="offset" />
          </mxGeometry>
        </mxCell>
        <mxCell id="T-t7kQBQDLx_ATR56J1J-103" value="" style="endArrow=classic;html=1;rounded=0;fillColor=#008a00;strokeColor=light-dark(#005700,#0DF2D7);" edge="1" parent="1">
          <mxGeometry width="50" height="50" relative="1" as="geometry">
            <mxPoint x="180" y="430" as="sourcePoint" />
            <mxPoint x="180" y="380" as="targetPoint" />
          </mxGeometry>
        </mxCell>
        <mxCell id="T-t7kQBQDLx_ATR56J1J-108" value="" style="endArrow=none;html=1;rounded=0;" edge="1" parent="1">
          <mxGeometry width="50" height="50" relative="1" as="geometry">
            <mxPoint x="380" y="430" as="sourcePoint" />
            <mxPoint x="430" y="430" as="targetPoint" />
          </mxGeometry>
        </mxCell>
        <mxCell id="T-t7kQBQDLx_ATR56J1J-109" value="" style="endArrow=none;html=1;rounded=0;" edge="1" parent="1">
          <mxGeometry width="50" height="50" relative="1" as="geometry">
            <mxPoint x="430" y="470" as="sourcePoint" />
            <mxPoint x="430" y="430" as="targetPoint" />
          </mxGeometry>
        </mxCell>
        <mxCell id="T-t7kQBQDLx_ATR56J1J-110" value="" style="endArrow=none;html=1;rounded=0;" edge="1" parent="1">
          <mxGeometry width="50" height="50" relative="1" as="geometry">
            <mxPoint x="430" y="470" as="sourcePoint" />
            <mxPoint x="500" y="470" as="targetPoint" />
          </mxGeometry>
        </mxCell>
        <mxCell id="T-t7kQBQDLx_ATR56J1J-111" value="Shoot" style="edgeLabel;html=1;align=center;verticalAlign=middle;resizable=0;points=[];" vertex="1" connectable="0" parent="T-t7kQBQDLx_ATR56J1J-110">
          <mxGeometry x="-0.3714" y="1" relative="1" as="geometry">
            <mxPoint as="offset" />
          </mxGeometry>
        </mxCell>
        <mxCell id="T-t7kQBQDLx_ATR56J1J-112" value="" style="endArrow=none;html=1;rounded=0;" edge="1" parent="1">
          <mxGeometry width="50" height="50" relative="1" as="geometry">
            <mxPoint x="500" y="455" as="sourcePoint" />
            <mxPoint x="440" y="455" as="targetPoint" />
          </mxGeometry>
        </mxCell>
        <mxCell id="T-t7kQBQDLx_ATR56J1J-114" value="Gimbal" style="edgeLabel;html=1;align=center;verticalAlign=middle;resizable=0;points=[];" vertex="1" connectable="0" parent="T-t7kQBQDLx_ATR56J1J-112">
          <mxGeometry x="0.4" y="-2" relative="1" as="geometry">
            <mxPoint as="offset" />
          </mxGeometry>
        </mxCell>
        <mxCell id="T-t7kQBQDLx_ATR56J1J-113" value="" style="endArrow=none;html=1;rounded=0;entryX=0.658;entryY=1.044;entryDx=0;entryDy=0;entryPerimeter=0;" edge="1" parent="1" target="T-t7kQBQDLx_ATR56J1J-1">
          <mxGeometry width="50" height="50" relative="1" as="geometry">
            <mxPoint x="439" y="455" as="sourcePoint" />
            <mxPoint x="489" y="405" as="targetPoint" />
          </mxGeometry>
        </mxCell>
        <mxCell id="T-t7kQBQDLx_ATR56J1J-116" value="" style="endArrow=none;html=1;rounded=0;exitX=1;exitY=0.75;exitDx=0;exitDy=0;" edge="1" parent="1" source="T-t7kQBQDLx_ATR56J1J-131">
          <mxGeometry width="50" height="50" relative="1" as="geometry">
            <mxPoint x="460" y="380" as="sourcePoint" />
            <mxPoint x="540" y="380" as="targetPoint" />
          </mxGeometry>
        </mxCell>
        <mxCell id="T-t7kQBQDLx_ATR56J1J-134" value="xt30 2+2" style="edgeLabel;html=1;align=center;verticalAlign=middle;resizable=0;points=[];" vertex="1" connectable="0" parent="T-t7kQBQDLx_ATR56J1J-116">
          <mxGeometry x="0.1714" relative="1" as="geometry">
            <mxPoint as="offset" />
          </mxGeometry>
        </mxCell>
        <mxCell id="T-t7kQBQDLx_ATR56J1J-118" value="" style="endArrow=none;html=1;rounded=0;" edge="1" parent="1">
          <mxGeometry width="50" height="50" relative="1" as="geometry">
            <mxPoint x="400" y="710" as="sourcePoint" />
            <mxPoint x="540" y="710" as="targetPoint" />
          </mxGeometry>
        </mxCell>
        <mxCell id="T-t7kQBQDLx_ATR56J1J-119" value="DM4310" style="rounded=1;whiteSpace=wrap;html=1;fillColor=#FFA809;strokeColor=#BD7000;fontColor=#000000;" vertex="1" parent="1">
          <mxGeometry x="540" y="680" width="70" height="55.5" as="geometry" />
        </mxCell>
        <mxCell id="T-t7kQBQDLx_ATR56J1J-122" value="" style="endArrow=none;html=1;rounded=0;" edge="1" parent="1">
          <mxGeometry width="50" height="50" relative="1" as="geometry">
            <mxPoint x="414" y="310" as="sourcePoint" />
            <mxPoint x="414" y="240" as="targetPoint" />
          </mxGeometry>
        </mxCell>
        <mxCell id="T-t7kQBQDLx_ATR56J1J-135" value="xt30" style="edgeLabel;html=1;align=center;verticalAlign=middle;resizable=0;points=[];" vertex="1" connectable="0" parent="T-t7kQBQDLx_ATR56J1J-122">
          <mxGeometry x="0.1333" y="2" relative="1" as="geometry">
            <mxPoint as="offset" />
          </mxGeometry>
        </mxCell>
        <mxCell id="T-t7kQBQDLx_ATR56J1J-123" value="" style="endArrow=none;html=1;rounded=0;" edge="1" parent="1">
          <mxGeometry width="50" height="50" relative="1" as="geometry">
            <mxPoint x="414" y="310" as="sourcePoint" />
            <mxPoint x="500" y="310.5" as="targetPoint" />
          </mxGeometry>
        </mxCell>
        <mxCell id="T-t7kQBQDLx_ATR56J1J-124" value="Pitch&lt;br&gt;&lt;div&gt;M3508-1&lt;/div&gt;" style="rounded=1;whiteSpace=wrap;html=1;fillColor=#FFA809;strokeColor=#BD7000;fontColor=#000000;" vertex="1" parent="1">
          <mxGeometry x="540" y="280" width="80" height="50" as="geometry" />
        </mxCell>
        <mxCell id="T-t7kQBQDLx_ATR56J1J-125" value="C620" style="rounded=1;whiteSpace=wrap;html=1;fillColor=#a0522d;fontColor=#ffffff;strokeColor=#6D1F00;" vertex="1" parent="1">
          <mxGeometry x="500" y="295" width="40" height="20" as="geometry" />
        </mxCell>
        <mxCell id="T-t7kQBQDLx_ATR56J1J-126" value="" style="endArrow=classic;html=1;rounded=0;fillColor=#008a00;strokeColor=light-dark(#005700,#0DF2D7);" edge="1" parent="1">
          <mxGeometry width="50" height="50" relative="1" as="geometry">
            <mxPoint x="380" y="299" as="sourcePoint" />
            <mxPoint x="500" y="298.5" as="targetPoint" />
          </mxGeometry>
        </mxCell>
        <mxCell id="T-t7kQBQDLx_ATR56J1J-136" value="can1" style="edgeLabel;html=1;align=center;verticalAlign=middle;resizable=0;points=[];" vertex="1" connectable="0" parent="T-t7kQBQDLx_ATR56J1J-126">
          <mxGeometry x="0.2169" y="3" relative="1" as="geometry">
            <mxPoint as="offset" />
          </mxGeometry>
        </mxCell>
        <mxCell id="T-t7kQBQDLx_ATR56J1J-130" value="" style="endArrow=none;html=1;rounded=0;exitX=0.175;exitY=1.033;exitDx=0;exitDy=0;exitPerimeter=0;" edge="1" parent="1" source="T-t7kQBQDLx_ATR56J1J-1" target="T-t7kQBQDLx_ATR56J1J-131">
          <mxGeometry width="50" height="50" relative="1" as="geometry">
            <mxPoint x="380" y="340" as="sourcePoint" />
            <mxPoint x="380" y="239" as="targetPoint" />
          </mxGeometry>
        </mxCell>
        <mxCell id="T-t7kQBQDLx_ATR56J1J-131" value="分电板3" style="rounded=1;whiteSpace=wrap;html=1;" vertex="1" parent="1">
          <mxGeometry x="364" y="360" width="36" height="30" as="geometry" />
        </mxCell>
        <mxCell id="T-t7kQBQDLx_ATR56J1J-132" value="" style="endArrow=classic;html=1;rounded=0;fillColor=#008a00;strokeColor=light-dark(#005700,#0DF2D7);" edge="1" parent="1">
          <mxGeometry width="50" height="50" relative="1" as="geometry">
            <mxPoint x="380" y="350.5" as="sourcePoint" />
            <mxPoint x="540" y="350" as="targetPoint" />
          </mxGeometry>
        </mxCell>
        <mxCell id="T-t7kQBQDLx_ATR56J1J-137" value="can1" style="edgeLabel;html=1;align=center;verticalAlign=middle;resizable=0;points=[];" vertex="1" connectable="0" parent="T-t7kQBQDLx_ATR56J1J-132">
          <mxGeometry x="0.0875" relative="1" as="geometry">
            <mxPoint as="offset" />
          </mxGeometry>
        </mxCell>
        <mxCell id="T-t7kQBQDLx_ATR56J1J-133" value="DM4310" style="rounded=1;whiteSpace=wrap;html=1;fillColor=#FFA809;strokeColor=#BD7000;fontColor=#000000;" vertex="1" parent="1">
          <mxGeometry x="545" y="334.5" width="70" height="55.5" as="geometry" />
        </mxCell>
        <mxCell id="T-t7kQBQDLx_ATR56J1J-138" value="" style="endArrow=none;html=1;rounded=0;" edge="1" parent="1" target="T-t7kQBQDLx_ATR56J1J-139">
          <mxGeometry width="50" height="50" relative="1" as="geometry">
            <mxPoint x="480" y="202.25" as="sourcePoint" />
            <mxPoint x="550" y="200" as="targetPoint" />
          </mxGeometry>
        </mxCell>
        <mxCell id="T-t7kQBQDLx_ATR56J1J-139" value="图传模块" style="rounded=1;whiteSpace=wrap;html=1;fillColor=#1ba1e2;strokeColor=#006EAF;fontColor=#ffffff;" vertex="1" parent="1">
          <mxGeometry x="560" y="174.5" width="70" height="55.5" as="geometry" />
        </mxCell>
        <mxCell id="T-t7kQBQDLx_ATR56J1J-140" value="" style="endArrow=none;html=1;rounded=0;entryX=0.197;entryY=1;entryDx=0;entryDy=0;entryPerimeter=0;exitX=0.5;exitY=0;exitDx=0;exitDy=0;" edge="1" parent="1">
          <mxGeometry width="50" height="50" relative="1" as="geometry">
            <mxPoint x="380.68" y="680" as="sourcePoint" />
            <mxPoint x="383.3200000000001" y="580" as="targetPoint" />
          </mxGeometry>
        </mxCell>
        <mxCell id="T-t7kQBQDLx_ATR56J1J-141" value="xt30" style="edgeLabel;html=1;align=center;verticalAlign=middle;resizable=0;points=[];" vertex="1" connectable="0" parent="T-t7kQBQDLx_ATR56J1J-140">
          <mxGeometry x="-0.5247" y="-4" relative="1" as="geometry">
            <mxPoint as="offset" />
          </mxGeometry>
        </mxCell>
        <mxCell id="T-t7kQBQDLx_ATR56J1J-142" value="" style="endArrow=none;html=1;rounded=0;" edge="1" parent="1">
          <mxGeometry width="50" height="50" relative="1" as="geometry">
            <mxPoint x="460" y="650" as="sourcePoint" />
            <mxPoint x="460" y="580" as="targetPoint" />
          </mxGeometry>
        </mxCell>
        <mxCell id="T-t7kQBQDLx_ATR56J1J-143" value="" style="endArrow=none;html=1;rounded=0;" edge="1" parent="1">
          <mxGeometry width="50" height="50" relative="1" as="geometry">
            <mxPoint x="460" y="650" as="sourcePoint" />
            <mxPoint x="510" y="650" as="targetPoint" />
          </mxGeometry>
        </mxCell>
        <mxCell id="T-t7kQBQDLx_ATR56J1J-145" value="usart" style="edgeLabel;html=1;align=center;verticalAlign=middle;resizable=0;points=[];" vertex="1" connectable="0" parent="T-t7kQBQDLx_ATR56J1J-143">
          <mxGeometry x="0.16" relative="1" as="geometry">
            <mxPoint as="offset" />
          </mxGeometry>
        </mxCell>
        <mxCell id="T-t7kQBQDLx_ATR56J1J-144" value="" style="endArrow=none;html=1;rounded=0;entryX=0.143;entryY=0.923;entryDx=0;entryDy=0;entryPerimeter=0;" edge="1" parent="1" target="T-t7kQBQDLx_ATR56J1J-54">
          <mxGeometry width="50" height="50" relative="1" as="geometry">
            <mxPoint x="510" y="650" as="sourcePoint" />
            <mxPoint x="510" y="500" as="targetPoint" />
          </mxGeometry>
        </mxCell>
        <mxCell id="T-t7kQBQDLx_ATR56J1J-146" value="" style="endArrow=none;html=1;rounded=0;exitX=1;exitY=0.25;exitDx=0;exitDy=0;" edge="1" parent="1">
          <mxGeometry width="50" height="50" relative="1" as="geometry">
            <mxPoint x="570" y="442.56" as="sourcePoint" />
            <mxPoint x="690" y="443" as="targetPoint" />
          </mxGeometry>
        </mxCell>
        <mxCell id="T-t7kQBQDLx_ATR56J1J-147" value="主控" style="rounded=1;whiteSpace=wrap;html=1;" vertex="1" parent="1">
          <mxGeometry x="688.75" y="420" width="52.5" height="40" as="geometry" />
        </mxCell>
      </root>
    </mxGraphModel>
  </diagram>
</mxfile>
